<?xml version="1.0" standalone="no"?>
<!DOCTYPE svg PUBLIC "-//W3C//DTD SVG 20010904//EN"
 "http://www.w3.org/TR/2001/REC-SVG-20010904/DTD/svg10.dtd">
<svg version="1.0" xmlns="http://www.w3.org/2000/svg"
 width="968.000000pt" height="439.000000pt" viewBox="0 0 968.000000 439.000000"
 preserveAspectRatio="xMidYMid meet">
<metadata>
Created by potrace 1.16, written by Peter Selinger 2001-2019
</metadata>
<g transform="translate(0.000000,439.000000) scale(0.100000,-0.100000)"
fill="#000000" stroke="none">
<path d="M4588 3795 c-110 -23 -366 -98 -698 -204 l-145 -46 -270 1 c-283 2
-692 18 -2145 84 -1267 58 -1185 56 -1175 39 52 -88 155 -159 261 -178 108
-21 485 -57 1709 -166 341 -31 701 -64 800 -75 518 -57 625 -107 772 -359 148
-255 218 -358 339 -495 149 -169 420 -374 657 -496 l107 -55 107 55 c234 120
508 327 657 496 121 137 191 240 339 495 147 252 254 302 772 359 99 11 459
44 800 75 1224 109 1601 145 1709 166 106 19 209 90 261 178 10 17 92 19
-1175 -39 -1175 -53 -1793 -79 -2100 -86 -300 -7 -255 -15 -693 120 -390 121
-508 148 -657 152 -94 3 -137 -1 -232 -21z m474 -186 c211 -53 473 -140 585
-194 112 -55 139 -86 136 -160 -3 -120 -157 -471 -281 -644 -76 -107 -229
-265 -347 -360 -95 -77 -310 -219 -343 -228 -41 -10 -270 142 -444 294 -177
155 -311 330 -414 540 -56 115 -129 317 -139 388 -13 86 49 140 245 216 167
65 509 162 680 193 53 9 171 -7 322 -45z"/>
<path d="M4079 3197 c-47 -31 -66 -91 -47 -149 23 -75 108 -108 197 -77 30 11
31 13 31 70 l0 59 -45 0 c-44 0 -60 -15 -30 -26 9 -4 15 -19 15 -40 0 -31 -2
-34 -30 -34 -71 0 -106 94 -59 155 19 23 28 26 63 23 23 -3 49 -8 59 -12 14
-7 17 -3 17 17 0 28 -20 37 -91 37 -31 0 -57 -7 -80 -23z"/>
<path d="M4297 3213 c-4 -3 -3 -11 3 -18 5 -6 11 -60 12 -121 l3 -109 88 -3
c82 -3 87 -2 87 18 0 18 -6 20 -61 20 l-60 0 3 38 c3 37 3 37 51 40 33 2 47 7
47 18 0 10 -13 14 -50 14 l-50 0 0 35 0 35 61 0 c52 0 60 2 55 16 -3 9 -6 18
-6 20 0 7 -176 4 -183 -3z"/>
<path d="M4524 3208 c-4 -6 -2 -14 4 -16 8 -2 12 -39 12 -119 0 -113 0 -114
23 -111 20 3 22 10 27 72 l5 70 58 -73 c45 -55 64 -71 80 -69 21 3 22 8 22
128 0 121 -1 125 -22 128 -21 3 -22 -1 -25 -77 l-3 -81 -63 80 c-47 61 -68 80
-86 80 -14 0 -28 -5 -32 -12z"/>
<path d="M4800 3206 c0 -8 5 -18 10 -21 6 -4 10 -53 10 -116 l0 -109 85 0 c78
0 85 2 85 20 0 18 -7 20 -55 20 l-55 0 0 40 0 40 50 0 c38 0 50 4 50 15 0 11
-12 15 -50 15 l-50 0 0 35 0 35 56 0 c47 0 55 3 52 18 -3 14 -17 17 -96 20
-76 2 -92 0 -92 -12z"/>
<path d="M5062 3210 c-12 -5 -27 -21 -32 -36 -15 -39 7 -74 65 -106 58 -31 67
-61 22 -66 -16 -2 -42 1 -58 7 -29 10 -30 9 -27 -17 3 -26 6 -27 64 -30 49 -2
65 1 87 18 51 40 33 97 -43 135 -36 18 -50 31 -50 47 0 19 4 20 55 15 49 -5
55 -3 55 13 0 10 -7 21 -16 24 -23 9 -95 6 -122 -4z"/>
<path d="M5244 3208 c-4 -6 -2 -14 4 -16 8 -2 12 -39 12 -118 l0 -114 30 0 30
0 0 130 0 130 -34 0 c-19 0 -38 -5 -42 -12z"/>
<path d="M5409 3205 c-58 -32 -41 -94 36 -134 34 -18 50 -33 50 -46 0 -24 -41
-32 -86 -16 -29 10 -30 9 -27 -17 3 -26 6 -27 64 -30 76 -4 114 21 114 72 0
36 -13 51 -77 86 -28 15 -43 31 -43 43 0 18 5 19 55 14 49 -5 55 -3 55 13 0
10 -7 21 -16 24 -28 11 -98 6 -125 -9z"/>
<path d="M442 3362 c2 -5 37 -39 78 -77 296 -270 512 -352 1060 -399 250 -22
591 -43 1005 -61 198 -9 384 -21 414 -27 37 -7 64 -20 90 -43 20 -18 33 -36
30 -39 -6 -6 -727 6 -1134 19 -128 4 -187 3 -180 -4 23 -23 523 -163 799 -224
l141 -31 390 -1 c423 -1 420 -1 474 -58 l23 -25 -43 -6 c-49 -6 -324 -26 -360
-26 -14 0 -19 -4 -13 -9 11 -12 366 -109 524 -145 147 -32 400 -79 405 -74 2
2 -21 24 -52 48 -129 103 -275 280 -464 560 -98 146 -198 255 -267 293 -93 50
-304 87 -752 132 -1162 114 -2112 205 -2155 205 -9 0 -15 -4 -13 -8z"/>
<path d="M8730 3334 c-195 -18 -587 -56 -870 -84 -283 -28 -652 -64 -820 -81
-497 -48 -706 -84 -802 -136 -69 -38 -169 -147 -267 -293 -189 -280 -335 -457
-464 -560 -31 -24 -54 -46 -52 -48 5 -5 258 42 405 74 158 36 513 133 524 145
6 5 1 9 -13 9 -36 0 -311 20 -360 26 l-43 6 23 25 c54 57 51 57 474 58 l390 1
141 31 c275 61 776 201 799 224 7 7 -51 8 -175 4 -392 -12 -1133 -25 -1139
-19 -3 3 10 21 30 39 26 23 53 36 90 43 30 6 216 18 414 27 414 18 754 39
1005 61 547 47 764 129 1060 399 41 38 77 72 78 77 5 12 -38 9 -428 -28z"/>
<path d="M3139 1220 c-165 -28 -280 -182 -266 -356 9 -118 80 -224 185 -275
40 -20 62 -24 147 -24 88 0 107 3 157 27 32 15 74 39 93 54 l35 26 0 124 0
124 -110 0 -110 0 0 -40 0 -40 65 0 65 0 0 -58 c0 -44 -5 -63 -17 -74 -38 -33
-91 -51 -160 -56 -64 -4 -79 -1 -126 22 -86 42 -127 115 -127 226 1 139 94
233 230 233 77 0 131 -24 179 -78 l32 -37 34 24 c19 12 35 26 35 29 0 3 -16
24 -35 47 -66 77 -196 120 -306 102z"/>
<path d="M5609 1221 c-121 -24 -187 -139 -141 -244 25 -56 72 -89 162 -113
117 -31 140 -51 140 -119 0 -27 -8 -44 -30 -67 -29 -28 -35 -30 -93 -26 -72 4
-105 24 -137 80 l-21 37 -34 -21 c-19 -11 -35 -26 -35 -32 0 -24 59 -95 102
-123 34 -23 54 -29 117 -31 64 -3 83 1 120 20 67 34 103 86 109 153 9 107 -45
169 -185 210 -96 29 -133 57 -133 103 0 94 139 118 216 37 l31 -33 31 20 c37
23 38 24 14 61 -46 68 -143 105 -233 88z"/>
<path d="M6461 1219 c-56 -11 -109 -51 -132 -103 -52 -115 9 -212 158 -252
119 -31 143 -50 143 -118 0 -56 -35 -88 -102 -94 -72 -6 -122 17 -158 74 l-26
42 -32 -20 c-18 -11 -32 -24 -32 -29 0 -42 85 -129 145 -149 21 -7 67 -10 105
-8 85 5 143 40 178 108 62 123 0 226 -165 276 -101 30 -133 54 -133 99 0 43
24 73 70 85 51 14 116 -8 148 -49 l24 -30 34 22 c18 12 34 25 34 29 0 4 -14
23 -32 43 -56 64 -138 91 -227 74z"/>
<path d="M3670 890 l0 -320 170 0 170 0 0 40 0 40 -125 0 -125 0 0 100 0 100
116 0 115 0 -3 43 -3 42 -112 3 -113 3 0 94 0 95 125 0 125 0 0 40 0 40 -170
0 -170 0 0 -320z"/>
<path d="M4190 890 l0 -320 45 0 45 0 2 221 3 221 213 -226 c117 -124 219
-226 227 -226 13 0 15 47 15 325 l0 325 -45 0 -45 0 0 -222 -1 -223 -217 223
c-119 122 -223 223 -229 222 -10 0 -13 -71 -13 -320z"/>
<path d="M4950 890 l0 -320 170 0 170 0 0 40 0 40 -125 0 -125 0 0 100 0 100
115 0 115 0 0 45 0 45 -115 0 -115 0 0 95 0 95 125 0 125 0 0 40 0 40 -170 0
-170 0 0 -320z"/>
<path d="M6030 890 l0 -320 50 0 50 0 0 320 0 320 -50 0 -50 0 0 -320z"/>
</g>
</svg>
